PathFileType        4      (X/Y/Z)      C:\Users\cpontonn\Documents\TRAVAIL - COURS\DIGISPORT\Partage Nico\Partage Nico DIGISPORT\TP OPENSIM - eleves - work\DATA\transformed_Marche0007.trc         
DataRate	CameraRate	NumFrames	NumMarkers	Units	OrigDataRate	OrigDataStartFrame	OrigNumFrames
100.0	100.0	6	38	mm	100.0	1	414
Frame#	Time	LFHD			LBHD			RFHD			RBHD			C7			T10			CLAV			STRN			LSHO			LRAD			LHUM			LWRB			LWRA			LCAR			RSHO			RRAD			RHUM			RWRB			RWRA			RCAR			LFWT			LBWT			RFWT			RBWT			LKNE			LKNI			LANE			LHEE			LANI			LTAR			LTOE			RKNE			RKNI			RANE			RHEE			RANI			RTAR			RTOE			
		X1	Y1	Z1	X2	Y2	Z2	X3	Y3	Z3	X4	Y4	Z4	X5	Y5	Z5	X6	Y6	Z6	X7	Y7	Z7	X8	Y8	Z8	X9	Y9	Z9	X10	Y10	Z10	X11	Y11	Z11	X12	Y12	Z12	X13	Y13	Z13	X14	Y14	Z14	X15	Y15	Z15	X16	Y16	Z16	X17	Y17	Z17	X18	Y18	Z18	X19	Y19	Z19	X20	Y20	Z20	X21	Y21	Z21	X22	Y22	Z22	X23	Y23	Z23	X24	Y24	Z24	X25	Y25	Z25	X26	Y26	Z26	X27	Y27	Z27	X28	Y28	Z28	X29	Y29	Z29	X30	Y30	Z30	X31	Y31	Z31	X32	Y32	Z32	X33	Y33	Z33	X34	Y34	Z34	X35	Y35	Z35	X36	Y36	Z36	X37	Y37	Z37	X38	Y38	Z38	
1	0.0	-2557.19604	1747.67627	234.8206499999998	-2704.06665	1725.00476	223.87044999999978	-2557.78564	1733.90564	369.23687999999976	-2716.64844	1703.74524	351.8665799999998	-2772.84399	1602.44873	296.4781799999998	-2892.81299	1396.2113	283.72014999999976	-2664.45288	1503.99817	283.7211299999998	-2662.45337	1323.05151	268.45180999999974	-2731.84692	1574.70435	88.47996999999975	-2852.99341	1228.42053	13.552179999999725	-2869.98755	1236.78125	75.63548999999972	-2837.71289	976.63904	-32.30896000000029	-2795.30249	962.47797	31.38044999999972	-2796.92261	890.76147	-33.335560000000285	-2723.26563	1535.74463	479.5811799999998	-2801.01709	1163.97705	529.2894299999998	-2833.83447	1174.32434	478.23537999999974	-2740.14136	911.41064	540.5590199999997	-2708.87988	909.49762	475.6512499999997	-2704.63965	833.16125	532.2994999999996	-2670.90601	1061.4375	155.79459999999972	-2861.07104	1100.83984	226.4256399999997	-2661.83521	1043.55945	344.74224999999973	-2856.12744	1095.97107	306.78182999999973	-2631.9541	571.41254	67.3367499999997	-2611.3313	536.30469	178.00585999999973	-2726.57104	126.42315999999998	118.5442099999997	-2807.95752	54.97067999999999	184.24134999999967	-2709.0	135.55577	205.27546999999967	-2579.40747	48.78280999999999	82.01811999999968	-2517.47485	53.58375999999999	157.5278899999997	-2830.2959	533.39417	391.8415499999997	-2842.61035	495.59354	295.8209499999997	-2955.89453	89.45309999999998	358.48247999999967				-2942.88525	114.51239999999999	267.36236999999966	-2805.87573	40.33707999999998	386.20269999999965	-2744.66382	48.39778999999998	302.75161999999966	
2	0.01	-2550.03735	1746.00146	235.3334199999998	-2697.03882	1724.10388	224.37731999999977	-2550.69092	1731.97522	369.6780099999998	-2709.75342	1702.66846	352.3023399999998	-2766.2478	1601.77307	296.7953799999998	-2887.25903	1396.05469	284.08294999999976	-2658.25781	1502.88806	283.8135999999998	-2657.15601	1321.76477	268.3993799999997	-2725.63647	1573.99011	88.74277999999977	-2849.12598	1228.64587	13.763549999999727	-2866.30151	1237.21997	75.80667999999972	-2836.35034	976.54126	-31.326810000000286	-2794.05151	962.18573	32.52820999999972	-2796.54517	890.12445	-31.694190000000287	-2716.50415	1534.70837	479.7785599999998	-2795.08398	1163.06055	529.6861599999997	-2827.98413	1173.54346	478.6635999999997	-2734.69824	910.55811	540.8026699999997	-2703.0752	908.60278	475.93136999999973	-2698.99512	832.21533	532.6052899999996	-2666.38965	1060.69556	156.00232999999974	-2855.04565	1099.87207	223.7160199999997	-2657.76733	1042.55774	344.8611099999997	-2851.84033	1095.25269	306.53087999999974	-2624.05103	571.716	69.16302999999971	-2603.63672	537.15771	180.0799399999997	-2706.72363	124.26294999999999	120.25635999999969	-2786.43896	50.59905999999999	185.77366999999967	-2689.3772	133.42091	207.05753999999965	-2557.46069	49.71184999999999	83.98542999999968	-2495.95581	55.82985999999999	159.6129199999997	-2828.56445	532.92688	391.90337999999974	-2840.71582	495.22321	295.8633399999997	-2955.82495	89.43805999999996	358.45501999999965				-2942.59302	114.46304999999998	267.3441499999997	-2805.81299	39.98662999999998	386.4463199999997	-2744.55859	48.01616999999998	302.94530999999967	
3	0.02	-2542.69312	1744.2196	235.6734499999998	-2689.80273	1723.07935	224.8070799999998	-2543.39258	1730.05872	370.0050699999998	-2702.59473	1701.56335	352.5619799999998	-2759.54004	1600.9176	297.02285999999975	-2881.43628	1395.75781	284.33388999999977	-2651.79639	1501.62231	283.74657999999977	-2651.7312	1320.46228	268.21605999999974	-2719.32373	1573.13367	88.88981999999977	-2845.04834	1228.66699	13.991739999999727	-2862.46509	1237.42798	75.96811999999971	-2834.45679	976.24744	-30.51508000000029	-2792.75513	961.73285	33.655999999999715	-2795.89258	889.24463	-30.11897000000029	-2709.69409	1533.58801	479.8547999999998	-2788.98242	1162.13672	530.0941199999997	-2821.96411	1172.61902	479.1490199999997	-2728.86572	909.45911	541.0151999999997	-2696.95874	907.61505	476.1989399999997	-2693.0874	831.13312	532.8077399999996	-2661.70923	1059.81726	156.18317999999974	-2850.54346	1099.14355	223.51058999999972	-2653.38184	1041.43286	345.01250999999974	-2847.46826	1094.48694	306.2920199999997	-2616.1897	571.76038	70.9141199999997	-2595.85278	537.72308	182.04442999999972	-2686.37378	122.14350999999999	121.79925999999969	-2764.27515	46.28875999999999	187.02788999999967	-2669.24292	131.47838	208.63335999999967	-2535.10474	50.98467999999999	85.68709999999969	-2473.93506	58.27445999999999	161.4983199999997	-2826.80469	532.47589	391.9971899999997	-2838.75806	494.57578	295.92598999999973	-2955.3938	89.42856999999997	358.5246899999997				-2942.3479	114.44115999999998	267.30437999999964	-2802.50391	40.77072999999998	386.44478999999967	-2744.46802	47.62723999999998	303.1932099999997	
4	0.03	-2535.13818	1742.27991	235.91112999999982	-2682.32788	1722.00269	225.23699999999977	-2535.92407	1727.9165	370.1496599999998	-2695.37549	1700.35193	352.6782199999998	-2752.56812	1600.00537	297.08260999999976	-2875.59473	1395.29968	284.54723999999976	-2645.17749	1500.4115	283.53588999999977	-2645.94678	1319.09082	268.0442499999997	-2712.90283	1572.03101	88.87021999999978	-2840.85107	1228.38684	14.197219999999726	-2858.36401	1237.42419	76.08790999999971	-2833.56519	975.78314	-28.78449000000029	-2791.1228	961.19037	34.70126999999972	-2795.14502	888.40552	-28.07233000000029	-2702.67163	1532.3075	479.8199499999998	-2782.85059	1161.09521	530.5011599999998	-2815.91333	1171.58264	479.6963499999997	-2722.59058	908.24939	541.1794999999996	-2690.92871	906.54913	476.3882399999997	-2686.96973	830.133	532.9739399999996	-2656.86353	1058.81421	156.33544999999975	-2845.78687	1098.32642	223.3238399999997	-2648.948	1040.21484	345.12282999999974	-2842.76489	1093.67175	306.0599399999997	-2608.33569	571.65875	72.79689999999971	-2588.23828	538.16925	183.9961999999997	-2664.97607	119.40793999999998	123.11020999999968	-2741.34521	42.350239999999985	187.93094999999965	-2648.70874	129.55006	210.0500899999997	-2512.21436	52.19512999999999	87.31067999999969	-2451.46021	60.597809999999996	163.27595999999969	-2824.92798	532.03674	392.09853999999973	-2836.78418	494.18134	296.0377199999997	-2955.21802	89.53106999999997	358.45147999999966				-2942.08765	114.35570999999999	267.22307999999964	-2805.8313	39.46004999999998	386.8594099999997	-2744.44238	47.31655999999998	303.3079199999997	
5	0.04	-2527.4978	1740.21338	235.8198099999998	-2674.72192	1720.73669	225.36738999999977	-2528.32129	1725.80127	370.1628099999998	-2687.88062	1699.07751	352.63772999999975	-2745.4729	1598.97534	297.0583799999998	-2869.4585	1394.78198	284.64461999999975	-2638.39429	1498.77222	283.33404999999976	-2640.21387	1317.49988	267.8857699999997	-2706.31958	1570.78101	88.67790999999977	-2836.4043	1227.89868	14.411279999999726	-2854.14624	1237.21863	76.18784999999971	-2830.32617	975.18219	-29.061100000000287	-2790.66528	960.32538	35.985849999999715	-2793.94165	887.09967	-27.175530000000286	-2695.56665	1530.97253	479.7115799999998	-2776.34814	1159.83362	530.8327599999998	-2809.62769	1170.43921	480.2365099999997	-2716.37598	907.03821	541.2916299999997	-2684.56909	905.39099	476.4744899999997	-2680.51392	829.00568	533.0586499999996	-2651.78711	1057.67981	156.48137999999975	-2840.82275	1097.40747	223.08939999999973	-2644.14819	1038.86707	345.2250099999997	-2837.86304	1092.79724	305.8410299999997	-2600.49976	571.38141	74.41681999999972	-2580.65112	538.25055	185.9733999999997	-2643.42114	117.12449999999998	124.09494999999968	-2718.23535	38.45606999999998	188.47545999999966	-2628.39893	126.81193999999999	210.6600299999997	-2488.85083	53.408469999999994	88.8306399999997	-2428.7124	63.117509999999996	165.05192999999971	-2823.07813	531.49762	392.22515999999973	-2834.75244	493.67584	296.1563399999997	-2955.43262	89.62476999999997	358.3647499999997				-2941.80103	114.23643999999999	267.19466999999963	-2805.91211	39.17807999999998	387.04952999999966	-2744.34253	46.76764999999998	303.42263999999966	
6	0.05	-2519.57446	1737.96509	235.6710499999998	-2666.8999	1719.29126	225.4309499999998	-2520.48511	1723.5177	369.9108899999998	-2680.15747	1697.72144	352.43801999999977	-2738.13062	1597.83435	296.89681999999976	-2863.21655	1394.20581	284.6744099999998	-2631.59863	1497.21802	282.99322999999976	-2634.00464	1315.81091	267.5877699999997	-2699.55078	1569.37463	88.42892999999977	-2831.91528	1227.30432	14.568669999999727	-2849.62158	1236.81592	76.33704999999972	-2828.8291	974.33368	-27.481370000000286	-2791.55249	959.33331	37.13612999999972	-2792.70654	885.93964	-25.231630000000287	-2688.2854	1529.50977	479.4509299999998	-2769.75757	1158.53186	531.2002599999997	-2803.26636	1169.20776	480.79213999999973	-2709.7063	905.73761	541.3483899999997	-2678.25024	904.18585	476.45824999999974	-2673.84961	827.81824	533.1256099999997	-2646.44971	1056.45789	156.54888999999974	-2835.68579	1096.38501	222.8577999999997	-2639.14136	1037.47815	345.27648999999974	-2832.81201	1091.8313	305.6657099999997	-2592.75171	570.94604	76.16101999999971	-2573.20776	538.18549	187.95006999999973	-2621.44897	115.13909999999998	124.65339999999968	-2694.77588	34.86105999999999	188.65902999999966	-2607.05688	125.06108999999998	211.2880599999997	-2464.26733	54.54212999999999	90.8871799999997	-2405.67261	65.58404999999999	166.8462499999997	-2821.13867	530.94775	392.29082999999974	-2832.82764	493.10562	296.1577799999997	-2955.11987	89.64885999999997	358.38762999999966				-2941.56396	114.16348999999998	267.1566499999997	-2805.81616	38.91799999999998	387.1456599999997	-2744.22559	46.13455999999998	303.55443999999966	
